<svg style="display: none;"><symbol viewBox="0 0 7 14" id="icon-bolt"><title>bolt</title> <path d="M6.914 4.422q0.141 0.156 0.055 0.344l-4.219 9.039q-0.102 0.195-0.328 0.195-0.031 0-0.109-0.016-0.133-0.039-0.199-0.148t-0.035-0.234l1.539-6.312-3.172 0.789q-0.031 0.008-0.094 0.008-0.141 0-0.242-0.086-0.141-0.117-0.102-0.305l1.57-6.445q0.031-0.109 0.125-0.18t0.219-0.070h2.563q0.148 0 0.25 0.098t0.102 0.23q0 0.062-0.039 0.141l-1.336 3.617 3.094-0.766q0.062-0.016 0.094-0.016 0.148 0 0.266 0.117z"/> </symbol><symbol viewBox="0 0 13 14" id="icon-calendar"><title>calendar</title> <path d="M1 13h2.25v-2.25h-2.25v2.25zM3.75 13h2.5v-2.25h-2.5v2.25zM1 10.25h2.25v-2.5h-2.25v2.5zM3.75 10.25h2.5v-2.5h-2.5v2.5zM1 7.25h2.25v-2.25h-2.25v2.25zM6.75 13h2.5v-2.25h-2.5v2.25zM3.75 7.25h2.5v-2.25h-2.5v2.25zM9.75 13h2.25v-2.25h-2.25v2.25zM6.75 10.25h2.5v-2.5h-2.5v2.5zM4 3.5v-2.25q0-0.102-0.074-0.176t-0.176-0.074h-0.5q-0.102 0-0.176 0.074t-0.074 0.176v2.25q0 0.102 0.074 0.176t0.176 0.074h0.5q0.102 0 0.176-0.074t0.074-0.176zM9.75 10.25h2.25v-2.5h-2.25v2.5zM6.75 7.25h2.5v-2.25h-2.5v2.25zM9.75 7.25h2.25v-2.25h-2.25v2.25zM10 3.5v-2.25q0-0.102-0.074-0.176t-0.176-0.074h-0.5q-0.102 0-0.176 0.074t-0.074 0.176v2.25q0 0.102 0.074 0.176t0.176 0.074h0.5q0.102 0 0.176-0.074t0.074-0.176zM13 3v10q0 0.406-0.297 0.703t-0.703 0.297h-11q-0.406 0-0.703-0.297t-0.297-0.703v-10q0-0.406 0.297-0.703t0.703-0.297h1v-0.75q0-0.516 0.367-0.883t0.883-0.367h0.5q0.516 0 0.883 0.367t0.367 0.883v0.75h3v-0.75q0-0.516 0.367-0.883t0.883-0.367h0.5q0.516 0 0.883 0.367t0.367 0.883v0.75h1q0.406 0 0.703 0.297t0.297 0.703z"/> </symbol><symbol viewBox="0 0 13 14" id="icon-chain"><title>chain</title> <path d="M11.375 9.5q0-0.312-0.219-0.531l-1.625-1.625q-0.219-0.219-0.531-0.219-0.328 0-0.563 0.25 0.023 0.023 0.148 0.145t0.168 0.168 0.117 0.148 0.102 0.199 0.027 0.215q0 0.312-0.219 0.531t-0.531 0.219q-0.117 0-0.215-0.027t-0.199-0.102-0.148-0.117-0.168-0.168-0.145-0.148q-0.258 0.242-0.258 0.57 0 0.312 0.219 0.531l1.609 1.617q0.211 0.211 0.531 0.211 0.312 0 0.531-0.203l1.148-1.141q0.219-0.219 0.219-0.523zM5.883 3.992q0-0.312-0.219-0.531l-1.609-1.617q-0.219-0.219-0.531-0.219-0.305 0-0.531 0.211l-1.148 1.141q-0.219 0.219-0.219 0.523 0 0.312 0.219 0.531l1.625 1.625q0.211 0.211 0.531 0.211 0.328 0 0.563-0.242-0.023-0.023-0.148-0.145t-0.168-0.168-0.117-0.148-0.102-0.199-0.027-0.215q0-0.312 0.219-0.531t0.531-0.219q0.117 0 0.215 0.027t0.199 0.102 0.148 0.117 0.168 0.168 0.145 0.148q0.258-0.242 0.258-0.57zM12.875 9.5q0 0.937-0.664 1.586l-1.148 1.141q-0.648 0.648-1.586 0.648-0.945 0-1.594-0.664l-1.609-1.617q-0.648-0.648-0.648-1.586 0-0.961 0.688-1.633l-0.688-0.688q-0.672 0.688-1.625 0.688-0.937 0-1.594-0.656l-1.625-1.625q-0.656-0.656-0.656-1.594t0.664-1.586l1.148-1.141q0.648-0.648 1.586-0.648 0.945 0 1.594 0.664l1.609 1.617q0.648 0.648 0.648 1.586 0 0.961-0.688 1.633l0.688 0.688q0.672-0.688 1.625-0.688 0.937 0 1.594 0.656l1.625 1.625q0.656 0.656 0.656 1.594z"/> </symbol><symbol viewBox="0 0 10 14" id="icon-chevron-left"><title>chevron-left</title> <path d="M9.148 2.352l-4.148 4.148 4.148 4.148q0.148 0.148 0.148 0.352t-0.148 0.352l-1.297 1.297q-0.148 0.148-0.352 0.148t-0.352-0.148l-5.797-5.797q-0.148-0.148-0.148-0.352t0.148-0.352l5.797-5.797q0.148-0.148 0.352-0.148t0.352 0.148l1.297 1.297q0.148 0.148 0.148 0.352t-0.148 0.352z"/> </symbol><symbol viewBox="0 0 10 14" id="icon-chevron-right"><title>chevron-right</title> <path d="M8.648 6.852l-5.797 5.797q-0.148 0.148-0.352 0.148t-0.352-0.148l-1.297-1.297q-0.148-0.148-0.148-0.352t0.148-0.352l4.148-4.148-4.148-4.148q-0.148-0.148-0.148-0.352t0.148-0.352l1.297-1.297q0.148-0.148 0.352-0.148t0.352 0.148l5.797 5.797q0.148 0.148 0.148 0.352t-0.148 0.352z"/> </symbol><symbol viewBox="0 0 12 14" id="icon-clock-o"><title>clock-o</title> <path d="M7 4.25v3.5q0 0.109-0.070 0.18t-0.18 0.070h-2.5q-0.109 0-0.18-0.070t-0.070-0.18v-0.5q0-0.109 0.070-0.18t0.18-0.070h1.75v-2.75q0-0.109 0.070-0.18t0.18-0.070h0.5q0.109 0 0.18 0.070t0.070 0.18zM10.25 7q0-1.156-0.57-2.133t-1.547-1.547-2.133-0.57-2.133 0.57-1.547 1.547-0.57 2.133 0.57 2.133 1.547 1.547 2.133 0.57 2.133-0.57 1.547-1.547 0.57-2.133zM12 7q0 1.633-0.805 3.012t-2.184 2.184-3.012 0.805-3.012-0.805-2.184-2.184-0.805-3.012 0.805-3.012 2.184-2.184 3.012-0.805 3.012 0.805 2.184 2.184 0.805 3.012z"/> </symbol><symbol viewBox="0 0 14 14" id="icon-commenting-o"><title>commenting-o</title> <path d="M5 7q0 0.414-0.293 0.707t-0.707 0.293-0.707-0.293-0.293-0.707 0.293-0.707 0.707-0.293 0.707 0.293 0.293 0.707zM8 7q0 0.414-0.293 0.707t-0.707 0.293-0.707-0.293-0.293-0.707 0.293-0.707 0.707-0.293 0.707 0.293 0.293 0.707zM11 7q0 0.414-0.293 0.707t-0.707 0.293-0.707-0.293-0.293-0.707 0.293-0.707 0.707-0.293 0.707 0.293 0.293 0.707zM7 3q-1.594 0-2.98 0.543t-2.203 1.465-0.816 1.992q0 0.875 0.559 1.668t1.574 1.371l0.68 0.391-0.211 0.75q-0.187 0.711-0.547 1.344 1.187-0.492 2.148-1.336l0.336-0.297 0.445 0.047q0.539 0.062 1.016 0.062 1.594 0 2.98-0.543t2.203-1.465 0.816-1.992-0.816-1.992-2.203-1.465-2.98-0.543zM14 7q0 1.359-0.937 2.512t-2.547 1.82-3.516 0.668q-0.547 0-1.133-0.062-1.547 1.367-3.594 1.891-0.383 0.109-0.891 0.172h-0.039q-0.117 0-0.211-0.082t-0.125-0.215v-0.008q-0.023-0.031-0.004-0.094t0.016-0.078 0.035-0.074l0.047-0.070t0.055-0.066 0.062-0.070q0.055-0.062 0.242-0.27t0.27-0.297 0.242-0.309 0.254-0.398 0.211-0.461 0.203-0.594q-1.227-0.695-1.934-1.719t-0.707-2.195q0-1.016 0.555-1.941t1.492-1.598 2.234-1.066 2.719-0.395 2.719 0.395 2.234 1.066 1.492 1.598 0.555 1.941z"/> </symbol><symbol viewBox="0 0 14 14" id="icon-commenting"><title>commenting</title> <path d="M5 7q0-0.414-0.293-0.707t-0.707-0.293-0.707 0.293-0.293 0.707 0.293 0.707 0.707 0.293 0.707-0.293 0.293-0.707zM8 7q0-0.414-0.293-0.707t-0.707-0.293-0.707 0.293-0.293 0.707 0.293 0.707 0.707 0.293 0.707-0.293 0.293-0.707zM11 7q0-0.414-0.293-0.707t-0.707-0.293-0.707 0.293-0.293 0.707 0.293 0.707 0.707 0.293 0.707-0.293 0.293-0.707zM14 7q0 1.359-0.937 2.512t-2.547 1.82-3.516 0.668q-0.859 0-1.648-0.141-1.352 1.352-3.398 1.789-0.406 0.078-0.672 0.102-0.094 0.008-0.172-0.047t-0.102-0.141q-0.031-0.117 0.156-0.289 0.039-0.039 0.184-0.168t0.199-0.184 0.184-0.199 0.187-0.246 0.16-0.289 0.156-0.375 0.113-0.449 0.098-0.566q-1.141-0.703-1.793-1.691t-0.652-2.105q0-1.359 0.937-2.512t2.547-1.82 3.516-0.668 3.516 0.668 2.547 1.82 0.937 2.512z"/> </symbol><symbol viewBox="0 0 14 14" id="icon-comments"><title>comments</title> <path d="M11 6q0 1.086-0.734 2.008t-2.004 1.457-2.762 0.535q-0.672 0-1.375-0.125-0.969 0.688-2.172 1-0.281 0.070-0.672 0.125h-0.023q-0.086 0-0.16-0.062t-0.090-0.164q-0.008-0.023-0.008-0.051t0.004-0.051 0.016-0.047l0.020-0.039t0.027-0.043 0.031-0.039 0.035-0.039 0.031-0.035q0.039-0.047 0.18-0.195t0.203-0.23 0.176-0.227 0.195-0.301 0.16-0.344q-0.969-0.563-1.523-1.383t-0.555-1.75q0-1.086 0.734-2.008t2.004-1.457 2.762-0.535 2.762 0.535 2.004 1.457 0.734 2.008zM14 8q0 0.937-0.555 1.754t-1.523 1.379q0.078 0.187 0.16 0.344t0.195 0.301 0.176 0.227 0.203 0.23 0.18 0.195q0.008 0.008 0.031 0.035t0.035 0.039 0.031 0.039 0.027 0.043l0.020 0.039t0.016 0.047 0.004 0.051-0.008 0.051q-0.023 0.109-0.102 0.172t-0.172 0.055q-0.391-0.055-0.672-0.125-1.203-0.312-2.172-1-0.703 0.125-1.375 0.125-2.117 0-3.687-1.031 0.453 0.031 0.688 0.031 1.258 0 2.414-0.352t2.062-1.008q0.977-0.719 1.5-1.656t0.523-1.984q0-0.602-0.18-1.187 1.008 0.555 1.594 1.391t0.586 1.797z"/> </symbol><symbol viewBox="0 0 14 14" id="icon-envelope-o"><title>envelope-o</title> <path d="M13 11.75v-6q-0.25 0.281-0.539 0.516-2.094 1.609-3.328 2.641-0.398 0.336-0.648 0.523t-0.676 0.379-0.801 0.191h-0.016q-0.375 0-0.801-0.191t-0.676-0.379-0.648-0.523q-1.234-1.031-3.328-2.641-0.289-0.234-0.539-0.516v6q0 0.102 0.074 0.176t0.176 0.074h11.5q0.102 0 0.176-0.074t0.074-0.176zM13 3.539v-0.191t-0.004-0.102-0.023-0.098-0.043-0.070-0.070-0.059-0.109-0.020h-11.5q-0.102 0-0.176 0.074t-0.074 0.176q0 1.312 1.148 2.219 1.508 1.187 3.133 2.477 0.047 0.039 0.273 0.23t0.359 0.293 0.348 0.246 0.395 0.215 0.336 0.070h0.016q0.156 0 0.336-0.070t0.395-0.215 0.348-0.246 0.359-0.293 0.273-0.23q1.625-1.289 3.133-2.477 0.422-0.336 0.785-0.902t0.363-1.027zM14 3.25v8.5q0 0.516-0.367 0.883t-0.883 0.367h-11.5q-0.516 0-0.883-0.367t-0.367-0.883v-8.5q0-0.516 0.367-0.883t0.883-0.367h11.5q0.516 0 0.883 0.367t0.367 0.883z"/> </symbol><symbol viewBox="0 0 14 14" id="icon-envelope"><title>envelope</title> <path d="M14 5.547v6.203q0 0.516-0.367 0.883t-0.883 0.367h-11.5q-0.516 0-0.883-0.367t-0.367-0.883v-6.203q0.344 0.383 0.789 0.68 2.828 1.922 3.883 2.695 0.445 0.328 0.723 0.512t0.738 0.375 0.859 0.191h0.016q0.398 0 0.859-0.191t0.738-0.375 0.723-0.512q1.328-0.961 3.891-2.695 0.445-0.305 0.781-0.68zM14 3.25q0 0.617-0.383 1.18t-0.953 0.961q-2.937 2.039-3.656 2.539-0.078 0.055-0.332 0.238t-0.422 0.297-0.406 0.254-0.449 0.211-0.391 0.070h-0.016q-0.18 0-0.391-0.070t-0.449-0.211-0.406-0.254-0.422-0.297-0.332-0.238q-0.711-0.5-2.047-1.426t-1.602-1.113q-0.484-0.328-0.914-0.902t-0.43-1.066q0-0.609 0.324-1.016t0.926-0.406h11.5q0.508 0 0.879 0.367t0.371 0.883z"/> </symbol><symbol viewBox="0 0 8 14" id="icon-facebook"><title>facebook</title> <path d="M7.492 0.094v2.062h-1.227q-0.672 0-0.906 0.281t-0.234 0.844v1.477h2.289l-0.305 2.313h-1.984v5.93h-2.391v-5.93h-1.992v-2.313h1.992v-1.703q0-1.453 0.813-2.254t2.164-0.801q1.148 0 1.781 0.094z"/> </symbol><symbol viewBox="0 0 11 14" id="icon-feed"><title>feed</title> <path d="M3 10.5q0 0.625-0.438 1.062t-1.062 0.438-1.062-0.438-0.438-1.062 0.438-1.062 1.062-0.438 1.062 0.438 0.438 1.062zM7 11.461q0.016 0.219-0.133 0.375-0.141 0.164-0.367 0.164h-1.055q-0.195 0-0.336-0.129t-0.156-0.324q-0.172-1.789-1.441-3.059t-3.059-1.441q-0.195-0.016-0.324-0.156t-0.129-0.336v-1.055q0-0.227 0.164-0.367 0.133-0.133 0.336-0.133h0.039q1.25 0.102 2.391 0.629t2.023 1.418q0.891 0.883 1.418 2.023t0.629 2.391zM11 11.477q0.016 0.211-0.141 0.367-0.141 0.156-0.359 0.156h-1.117q-0.203 0-0.348-0.137t-0.152-0.332q-0.094-1.68-0.789-3.191t-1.809-2.625-2.625-1.809-3.191-0.797q-0.195-0.008-0.332-0.152t-0.137-0.34v-1.117q0-0.219 0.156-0.359 0.141-0.141 0.344-0.141h0.023q2.047 0.102 3.918 0.937t3.324 2.297q1.461 1.453 2.297 3.324t0.937 3.918z"/> </symbol><symbol viewBox="0 0 12 14" id="icon-globe"><title>globe</title> <path d="M6 1q1.633 0 3.012 0.805t2.184 2.184 0.805 3.012-0.805 3.012-2.184 2.184-3.012 0.805-3.012-0.805-2.184-2.184-0.805-3.012 0.805-3.012 2.184-2.184 3.012-0.805zM8.141 5.070q-0.016 0.008-0.074 0.074t-0.105 0.074q0.016 0 0.035-0.039t0.039-0.086 0.027-0.055q0.047-0.055 0.172-0.117 0.109-0.047 0.406-0.094 0.266-0.062 0.398 0.086-0.016-0.016 0.074-0.102t0.113-0.094q0.023-0.016 0.117-0.035t0.117-0.059l0.016-0.172q-0.094 0.008-0.137-0.055t-0.051-0.164q0 0.016-0.047 0.062 0-0.055-0.035-0.062t-0.090 0.008-0.070 0.008q-0.078-0.023-0.117-0.059t-0.062-0.129-0.031-0.117q-0.016-0.039-0.074-0.082t-0.074-0.082q-0.008-0.016-0.020-0.043t-0.023-0.051-0.031-0.043-0.043-0.020-0.055 0.039-0.059 0.078-0.035 0.039q-0.023-0.016-0.047-0.012t-0.035 0.008-0.035 0.023-0.039 0.027q-0.023 0.016-0.066 0.023t-0.066 0.016q0.117-0.039-0.008-0.086-0.078-0.031-0.125-0.023 0.070-0.031 0.059-0.094t-0.066-0.109h0.039q-0.008-0.031-0.066-0.066t-0.137-0.066-0.102-0.047q-0.062-0.039-0.266-0.074t-0.258-0.004q-0.039 0.047-0.035 0.082t0.031 0.109 0.027 0.098q0.008 0.047-0.043 0.102t-0.051 0.094q0 0.055 0.109 0.121t0.078 0.168q-0.023 0.062-0.125 0.125t-0.125 0.094q-0.039 0.062-0.012 0.145t0.082 0.129q0.016 0.016 0.012 0.031t-0.027 0.035-0.043 0.031-0.051 0.027l-0.023 0.016q-0.086 0.039-0.16-0.047t-0.105-0.203q-0.055-0.195-0.125-0.234-0.18-0.062-0.227 0.008-0.039-0.102-0.32-0.203-0.195-0.070-0.453-0.031 0.047-0.008 0-0.117-0.055-0.117-0.148-0.094 0.023-0.047 0.031-0.137t0.008-0.105q0.023-0.102 0.094-0.18 0.008-0.008 0.055-0.066t0.074-0.105 0.004-0.047q0.273 0.031 0.391-0.086 0.039-0.039 0.090-0.133t0.082-0.133q0.070-0.047 0.109-0.043t0.113 0.043 0.113 0.039q0.109 0.008 0.121-0.086t-0.059-0.156q0.094 0.008 0.023-0.133-0.039-0.055-0.062-0.070-0.094-0.031-0.211 0.039-0.062 0.031 0.016 0.062-0.008-0.008-0.074 0.082t-0.129 0.137-0.125-0.039q-0.008-0.008-0.043-0.105t-0.074-0.105q-0.062 0-0.125 0.117 0.023-0.062-0.086-0.117t-0.187-0.062q0.148-0.094-0.062-0.211-0.055-0.031-0.16-0.039t-0.152 0.031q-0.039 0.055-0.043 0.090t0.039 0.062 0.082 0.043 0.090 0.031 0.066 0.023q0.109 0.078 0.062 0.109-0.016 0.008-0.066 0.027t-0.090 0.035-0.047 0.031q-0.023 0.031 0 0.109t-0.016 0.109q-0.039-0.039-0.070-0.137t-0.055-0.129q0.055 0.070-0.195 0.047l-0.078-0.008q-0.031 0-0.125 0.016t-0.16 0.008-0.105-0.062q-0.031-0.062 0-0.156 0.008-0.031 0.031-0.016-0.031-0.023-0.086-0.074t-0.078-0.066q-0.359 0.117-0.734 0.32 0.047 0.008 0.094-0.008 0.039-0.016 0.102-0.051t0.078-0.043q0.266-0.109 0.328-0.055l0.039-0.039q0.109 0.125 0.156 0.195-0.055-0.031-0.234-0.008-0.156 0.047-0.172 0.094 0.055 0.094 0.039 0.141-0.031-0.023-0.090-0.078t-0.113-0.086-0.117-0.039q-0.125 0-0.172 0.008-1.141 0.625-1.836 1.734 0.055 0.055 0.094 0.062 0.031 0.008 0.039 0.070t0.020 0.086 0.090-0.023q0.070 0.062 0.023 0.148 0.008-0.008 0.344 0.211 0.148 0.133 0.164 0.164 0.023 0.086-0.078 0.141-0.008-0.016-0.070-0.070t-0.070-0.031q-0.023 0.039 0.004 0.145t0.082 0.098q-0.055 0-0.074 0.125t-0.020 0.277-0.008 0.184l0.016 0.008q-0.023 0.094 0.043 0.27t0.168 0.152q-0.102 0.023 0.156 0.336 0.047 0.062 0.062 0.070 0.023 0.016 0.094 0.059t0.117 0.078 0.078 0.082q0.031 0.039 0.078 0.176t0.109 0.184q-0.016 0.047 0.074 0.156t0.082 0.18q-0.008 0-0.020 0.008t-0.020 0.008q0.023 0.055 0.121 0.109t0.121 0.102q0.008 0.023 0.016 0.078t0.023 0.086 0.062 0.016q0.016-0.156-0.187-0.484-0.117-0.195-0.133-0.227-0.023-0.039-0.043-0.121t-0.035-0.113q0.016 0 0.047 0.012t0.066 0.027 0.059 0.031 0.016 0.023q-0.023 0.055 0.016 0.137t0.094 0.145 0.133 0.148 0.094 0.102q0.047 0.047 0.109 0.152t0 0.105q0.070 0 0.156 0.078t0.133 0.156q0.039 0.062 0.062 0.203t0.039 0.187q0.016 0.055 0.066 0.105t0.098 0.074l0.125 0.062t0.102 0.055q0.039 0.016 0.145 0.082t0.168 0.090q0.078 0.031 0.125 0.031t0.113-0.020 0.105-0.027q0.117-0.016 0.227 0.117t0.164 0.164q0.281 0.148 0.43 0.086-0.016 0.008 0.004 0.059t0.062 0.121 0.070 0.113 0.043 0.066q0.039 0.047 0.141 0.117t0.141 0.117q0.047-0.031 0.055-0.070-0.023 0.062 0.055 0.156t0.141 0.078q0.109-0.023 0.109-0.25-0.242 0.117-0.383-0.141 0-0.008-0.020-0.043t-0.031-0.066-0.020-0.066 0-0.059 0.039-0.023q0.070 0 0.078-0.027t-0.016-0.098-0.031-0.102q-0.008-0.062-0.086-0.156t-0.094-0.117q-0.039 0.070-0.125 0.062t-0.125-0.070q0 0.008-0.012 0.043t-0.012 0.051q-0.102 0-0.117-0.008 0.008-0.023 0.020-0.137t0.027-0.176q0.008-0.031 0.043-0.094t0.059-0.113 0.031-0.098-0.035-0.074-0.137-0.020q-0.148 0.008-0.203 0.156-0.008 0.023-0.023 0.082t-0.039 0.090-0.070 0.055q-0.055 0.023-0.187 0.016t-0.187-0.039q-0.102-0.062-0.176-0.227t-0.074-0.289q0-0.078 0.020-0.207t0.023-0.195-0.043-0.191q0.023-0.016 0.070-0.074t0.078-0.082q0.016-0.008 0.035-0.012t0.035 0 0.031-0.012 0.023-0.047q-0.008-0.008-0.031-0.023-0.023-0.023-0.031-0.023 0.055 0.023 0.223-0.012t0.215 0.012q0.117 0.086 0.172-0.016 0-0.008-0.020-0.074t-0.004-0.105q0.039 0.211 0.227 0.070 0.023 0.023 0.121 0.039t0.137 0.039q0.023 0.016 0.055 0.043t0.043 0.035 0.039-0.004 0.066-0.051q0.078 0.109 0.094 0.187 0.086 0.312 0.148 0.344 0.055 0.023 0.086 0.016t0.035-0.074 0-0.109-0.012-0.098l-0.008-0.062v-0.141l-0.008-0.062q-0.117-0.023-0.145-0.094t0.012-0.145 0.117-0.145q0.008-0.008 0.062-0.027t0.121-0.051 0.098-0.062q0.164-0.148 0.117-0.273 0.055 0 0.086-0.070-0.008 0-0.039-0.023t-0.059-0.039-0.035-0.016q0.070-0.039 0.016-0.125 0.039-0.023 0.059-0.086t0.059-0.078q0.070 0.094 0.164 0.016 0.055-0.062 0.008-0.125 0.039-0.055 0.16-0.082t0.145-0.074q0.055 0.016 0.062-0.016t0.008-0.094 0.023-0.094q0.031-0.039 0.117-0.070t0.102-0.039l0.133-0.086q0.023-0.031 0-0.031 0.141 0.016 0.242-0.086 0.078-0.086-0.047-0.156 0.023-0.047-0.023-0.074t-0.117-0.043q0.023-0.008 0.090-0.004t0.082-0.012q0.117-0.078-0.055-0.125-0.133-0.039-0.336 0.094zM6.867 11.922q1.609-0.281 2.742-1.477-0.023-0.023-0.098-0.035t-0.098-0.027q-0.141-0.055-0.187-0.062 0.008-0.055-0.020-0.102t-0.062-0.070-0.098-0.062-0.086-0.055q-0.016-0.016-0.055-0.047t-0.055-0.043-0.059-0.035-0.066-0.016-0.078 0.008l-0.023 0.008q-0.023 0.008-0.043 0.020t-0.043 0.023-0.031 0.023 0 0.020q-0.164-0.133-0.281-0.172-0.039-0.008-0.086-0.043t-0.082-0.055-0.078-0.012-0.090 0.055q-0.039 0.039-0.047 0.117t-0.016 0.102q-0.055-0.039 0-0.137t0.016-0.145q-0.023-0.047-0.082-0.035t-0.094 0.035-0.090 0.066-0.070 0.051-0.066 0.043-0.066 0.059q-0.023 0.031-0.047 0.094t-0.039 0.086q-0.016-0.031-0.090-0.051t-0.074-0.043q0.016 0.078 0.031 0.273t0.039 0.297q0.055 0.242-0.094 0.375-0.211 0.195-0.227 0.312-0.031 0.172 0.094 0.203 0 0.055-0.062 0.16t-0.055 0.168q0 0.047 0.016 0.125z"/> </symbol><symbol viewBox="0 0 15 14" id="icon-group"><title>group</title> <path d="M4.633 7q-1.266 0.039-2.070 1h-1.047q-0.641 0-1.078-0.316t-0.438-0.926q0-2.758 0.969-2.758 0.047 0 0.34 0.164t0.762 0.332 0.93 0.168q0.523 0 1.039-0.18-0.039 0.289-0.039 0.516 0 1.086 0.633 2zM13 11.977q0 0.937-0.57 1.48t-1.516 0.543h-6.828q-0.945 0-1.516-0.543t-0.57-1.48q0-0.414 0.027-0.809t0.109-0.852 0.207-0.848 0.336-0.762 0.484-0.633 0.668-0.418 0.871-0.156q0.078 0 0.336 0.168t0.57 0.375 0.836 0.375 1.055 0.168 1.055-0.168 0.836-0.375 0.57-0.375 0.336-0.168q0.477 0 0.871 0.156t0.668 0.418 0.484 0.633 0.336 0.762 0.207 0.848 0.109 0.852 0.027 0.809zM5 2q0 0.828-0.586 1.414t-1.414 0.586-1.414-0.586-0.586-1.414 0.586-1.414 1.414-0.586 1.414 0.586 0.586 1.414zM10.5 5q0 1.242-0.879 2.121t-2.121 0.879-2.121-0.879-0.879-2.121 0.879-2.121 2.121-0.879 2.121 0.879 0.879 2.121zM15 6.758q0 0.609-0.438 0.926t-1.078 0.316h-1.047q-0.805-0.961-2.070-1 0.633-0.914 0.633-2 0-0.227-0.039-0.516 0.516 0.18 1.039 0.18 0.461 0 0.93-0.168t0.762-0.332 0.34-0.164q0.969 0 0.969 2.758zM14 2q0 0.828-0.586 1.414t-1.414 0.586-1.414-0.586-0.586-1.414 0.586-1.414 1.414-0.586 1.414 0.586 0.586 1.414z"/> </symbol><symbol viewBox="0 0 14 14" id="icon-heart-o"><title>heart-o</title> <path d="M13 4.656q0-0.633-0.168-1.117t-0.43-0.77-0.637-0.465-0.734-0.242-0.766-0.062-0.875 0.199-0.863 0.5-0.676 0.563-0.469 0.48q-0.141 0.172-0.383 0.172t-0.383-0.172q-0.187-0.219-0.469-0.48t-0.676-0.563-0.863-0.5-0.875-0.199-0.766 0.062-0.734 0.242-0.637 0.465-0.43 0.77-0.168 1.117q0 1.313 1.461 2.773l4.539 4.375 4.531-4.367q1.469-1.469 1.469-2.781zM14 4.656q0 1.727-1.789 3.516l-4.867 4.687q-0.141 0.141-0.344 0.141t-0.344-0.141l-4.875-4.703q-0.078-0.062-0.215-0.203t-0.434-0.512-0.531-0.762-0.418-0.945-0.184-1.078q0-1.719 0.992-2.687t2.742-0.969q0.484 0 0.988 0.168t0.937 0.453 0.746 0.535 0.594 0.531q0.281-0.281 0.594-0.531t0.746-0.535 0.937-0.453 0.988-0.168q1.75 0 2.742 0.969t0.992 2.687z"/> </symbol><symbol viewBox="0 0 14 14" id="icon-heart"><title>heart</title> <path d="M7 13q-0.203 0-0.344-0.141l-4.875-4.703q-0.078-0.062-0.215-0.203t-0.434-0.512-0.531-0.762-0.418-0.945-0.184-1.078q0-1.719 0.992-2.687t2.742-0.969q0.484 0 0.988 0.168t0.937 0.453 0.746 0.535 0.594 0.531q0.281-0.281 0.594-0.531t0.746-0.535 0.937-0.453 0.988-0.168q1.75 0 2.742 0.969t0.992 2.687q0 1.727-1.789 3.516l-4.867 4.687q-0.141 0.141-0.344 0.141z"/> </symbol><symbol viewBox="0 0 12 14" id="icon-instagram"><title>instagram</title> <path d="M10.641 11.141v-5.063h-1.055q0.156 0.492 0.156 1.023 0 0.984-0.5 1.816t-1.359 1.316-1.875 0.484q-1.539 0-2.633-1.059t-1.094-2.559q0-0.531 0.156-1.023h-1.102v5.063q0 0.203 0.137 0.34t0.34 0.137h8.352q0.195 0 0.336-0.137t0.141-0.34zM8.422 6.977q0-0.969-0.707-1.652t-1.707-0.684q-0.992 0-1.699 0.684t-0.707 1.652 0.707 1.652 1.699 0.684q1 0 1.707-0.684t0.707-1.652zM10.641 4.164v-1.289q0-0.219-0.156-0.379t-0.383-0.16h-1.359q-0.227 0-0.383 0.16t-0.156 0.379v1.289q0 0.227 0.156 0.383t0.383 0.156h1.359q0.227 0 0.383-0.156t0.156-0.383zM12 2.539v8.922q0 0.633-0.453 1.086t-1.086 0.453h-8.922q-0.633 0-1.086-0.453t-0.453-1.086v-8.922q0-0.633 0.453-1.086t1.086-0.453h8.922q0.633 0 1.086 0.453t0.453 1.086z"/> </symbol><symbol viewBox="0 0 14 14" id="icon-leaf"><title>leaf</title> <path d="M10 5.5q0-0.203-0.148-0.352t-0.352-0.148q-1.344 0-2.484 0.387t-2.027 1.047-1.84 1.715q-0.148 0.164-0.148 0.352 0 0.203 0.148 0.352t0.352 0.148q0.187 0 0.352-0.148 0.211-0.187 0.578-0.555t0.523-0.516q1.070-0.969 2.098-1.375t2.449-0.406q0.203 0 0.352-0.148t0.148-0.352zM14 3.953q0 0.742-0.156 1.508-0.359 1.75-1.441 2.992t-2.793 2.094q-1.672 0.844-3.422 0.844-1.156 0-2.234-0.367-0.117-0.039-0.688-0.328t-0.75-0.289q-0.125 0-0.309 0.25t-0.352 0.547-0.41 0.547-0.469 0.25q-0.234 0-0.398-0.086t-0.242-0.187-0.211-0.328q-0.016-0.031-0.047-0.086t-0.043-0.078-0.023-0.074-0.012-0.105q0-0.273 0.242-0.574t0.531-0.512 0.531-0.438 0.242-0.375q0-0.031-0.109-0.297t-0.125-0.344q-0.070-0.398-0.070-0.813 0-0.898 0.34-1.719t0.93-1.441 1.332-1.086 1.594-0.746q0.43-0.141 1.133-0.199t1.402-0.070 1.395-0.047 1.277-0.187 0.887-0.441l0.23-0.23t0.23-0.219 0.211-0.156 0.285-0.125 0.34-0.035q0.305 0 0.551 0.359t0.371 0.875 0.187 0.969 0.062 0.75z"/> </symbol><symbol viewBox="0 0 220.875 29.562" id="icon-logo"><title>logo</title><metadata id="logo-metadata35"><rdf:RDF><cc:Work rdf:about=""><dc:format>image/svg+xml</dc:format><dc:type rdf:resource="http://purl.org/dc/dcmitype/StillImage"/></cc:Work></rdf:RDF></metadata><sodipodi:namedview pagecolor="#ffffff" bordercolor="#666666" borderopacity="1" objecttolerance="10" gridtolerance="10" guidetolerance="10" inkscape:pageopacity="0" inkscape:pageshadow="2" inkscape:window-width="1600" inkscape:window-height="848" id="logo-namedview31" showgrid="false" inkscape:zoom="4.0081389" inkscape:cx="110.11518" inkscape:cy="31.467679" inkscape:window-x="0" inkscape:window-y="0" inkscape:window-maximized="1" inkscape:current-layer="Layer_1"/><g id="logo-g28"><text xml:space="preserve" x="32.182312" y="23.313015" id="logo-text51" transform="scale(0.97705814,1.0234805)"><tspan sodipodi:role="line" id="logo-tspan49" x="32.182312" y="23.313015">Jekyll Boilerplate</tspan></text> </g><g transform="matrix(0.89084189,0,0,0.78168994,0.97001352,1.8356839)" data-name="10-House" id="logo-_10-House"><path inkscape:connector-curvature="0" d="m 31.62,12.22 -15,-12 a 1,1 0 0 0 -1.25,0 l -15,12 A 1,1 0 0 0 1,14 h 2 v 17 a 1,1 0 0 0 1,1 h 24 a 1,1 0 0 0 1,-1 V 14 h 2 a 1,1 0 0 0 0.62,-1.78 z M 18,30 h -4 v -8 h 4 z M 28,12 a 1,1 0 0 0 -1,1 v 17 h -7 v -9 a 1,1 0 0 0 -1,-1 h -6 a 1,1 0 0 0 -1,1 v 9 H 5 V 14 H 22 V 12 H 3.85 L 16,2.28 28.15,12 Z" id="logo-path4-3"/></g></symbol><symbol viewBox="0 0 8 14" id="icon-map-marker"><title>map-marker</title> <path d="M6 5q0-0.828-0.586-1.414t-1.414-0.586-1.414 0.586-0.586 1.414 0.586 1.414 1.414 0.586 1.414-0.586 0.586-1.414zM8 5q0 0.852-0.258 1.398l-2.844 6.047q-0.125 0.258-0.371 0.406t-0.527 0.148-0.527-0.148-0.363-0.406l-2.852-6.047q-0.258-0.547-0.258-1.398 0-1.656 1.172-2.828t2.828-1.172 2.828 1.172 1.172 2.828z"/> </symbol><symbol viewBox="0 0 11 14" id="icon-phone"><title>phone</title> <path d="M11 9.687q0 0.211-0.078 0.551t-0.164 0.535q-0.164 0.391-0.953 0.828-0.734 0.398-1.453 0.398-0.211 0-0.41-0.027t-0.449-0.098-0.371-0.113-0.434-0.16-0.383-0.141q-0.766-0.273-1.367-0.648-1-0.617-2.066-1.684t-1.684-2.066q-0.375-0.602-0.648-1.367-0.023-0.070-0.141-0.383t-0.16-0.434-0.113-0.371-0.098-0.449-0.027-0.41q0-0.719 0.398-1.453 0.438-0.789 0.828-0.953 0.195-0.086 0.535-0.164t0.551-0.078q0.109 0 0.164 0.023 0.141 0.047 0.414 0.594 0.086 0.148 0.234 0.422t0.273 0.496 0.242 0.418q0.023 0.031 0.137 0.195t0.168 0.277 0.055 0.223q0 0.156-0.223 0.391t-0.484 0.43-0.484 0.414-0.223 0.359q0 0.070 0.039 0.176t0.066 0.16 0.109 0.187 0.090 0.148q0.594 1.070 1.359 1.836t1.836 1.359q0.016 0.008 0.148 0.090t0.187 0.109 0.16 0.066 0.176 0.039q0.141 0 0.359-0.223t0.414-0.484 0.43-0.484 0.391-0.223q0.109 0 0.223 0.055t0.277 0.168 0.195 0.137q0.195 0.117 0.418 0.242t0.496 0.273 0.422 0.234q0.547 0.273 0.594 0.414 0.023 0.055 0.023 0.164z"/> </symbol><symbol viewBox="0 0 13 14" id="icon-quote-left"><title>quote-left</title> <path d="M6 7.5v3q0 0.625-0.438 1.062t-1.062 0.438h-3q-0.625 0-1.062-0.438t-0.438-1.062v-5.5q0-0.813 0.316-1.551t0.855-1.277 1.277-0.855 1.551-0.316h0.5q0.203 0 0.352 0.148t0.148 0.352v1q0 0.203-0.148 0.352t-0.352 0.148h-0.5q-0.828 0-1.414 0.586t-0.586 1.414v0.25q0 0.312 0.219 0.531t0.531 0.219h1.75q0.625 0 1.062 0.438t0.438 1.062zM13 7.5v3q0 0.625-0.438 1.062t-1.062 0.438h-3q-0.625 0-1.062-0.438t-0.438-1.062v-5.5q0-0.813 0.316-1.551t0.855-1.277 1.277-0.855 1.551-0.316h0.5q0.203 0 0.352 0.148t0.148 0.352v1q0 0.203-0.148 0.352t-0.352 0.148h-0.5q-0.828 0-1.414 0.586t-0.586 1.414v0.25q0 0.312 0.219 0.531t0.531 0.219h1.75q0.625 0 1.062 0.438t0.438 1.062z"/> </symbol><symbol viewBox="0 0 13 14" id="icon-quote-right"><title>quote-right</title> <path d="M6 2.5v5.5q0 0.813-0.316 1.551t-0.855 1.277-1.277 0.855-1.551 0.316h-0.5q-0.203 0-0.352-0.148t-0.148-0.352v-1q0-0.203 0.148-0.352t0.352-0.148h0.5q0.828 0 1.414-0.586t0.586-1.414v-0.25q0-0.312-0.219-0.531t-0.531-0.219h-1.75q-0.625 0-1.062-0.438t-0.438-1.062v-3q0-0.625 0.438-1.062t1.062-0.438h3q0.625 0 1.062 0.438t0.438 1.062zM13 2.5v5.5q0 0.813-0.316 1.551t-0.855 1.277-1.277 0.855-1.551 0.316h-0.5q-0.203 0-0.352-0.148t-0.148-0.352v-1q0-0.203 0.148-0.352t0.352-0.148h0.5q0.828 0 1.414-0.586t0.586-1.414v-0.25q0-0.312-0.219-0.531t-0.531-0.219h-1.75q-0.625 0-1.062-0.438t-0.438-1.062v-3q0-0.625 0.438-1.062t1.062-0.438h3q0.625 0 1.062 0.438t0.438 1.062z"/> </symbol><symbol viewBox="0 0 13 14" id="icon-star-o"><title>star-o</title> <path d="M8.883 7.844l2.391-2.32-3.297-0.484-1.477-2.984-1.477 2.984-3.297 0.484 2.391 2.32-0.57 3.289 2.953-1.555 2.945 1.555zM13 5.055q0 0.172-0.203 0.375l-2.836 2.766 0.672 3.906q0.008 0.055 0.008 0.156 0 0.391-0.32 0.391-0.148 0-0.312-0.094l-3.508-1.844-3.508 1.844q-0.172 0.094-0.312 0.094-0.164 0-0.246-0.113t-0.082-0.277q0-0.047 0.016-0.156l0.672-3.906-2.844-2.766q-0.195-0.211-0.195-0.375 0-0.289 0.438-0.359l3.922-0.57 1.758-3.555q0.148-0.32 0.383-0.32t0.383 0.32l1.758 3.555 3.922 0.57q0.438 0.070 0.438 0.359z"/> </symbol><symbol viewBox="0 0 13 14" id="icon-star"><title>star</title> <path d="M13 5.055q0 0.172-0.203 0.375l-2.836 2.766 0.672 3.906q0.008 0.055 0.008 0.156 0 0.164-0.082 0.277t-0.238 0.113q-0.148 0-0.312-0.094l-3.508-1.844-3.508 1.844q-0.172 0.094-0.312 0.094-0.164 0-0.246-0.113t-0.082-0.277q0-0.047 0.016-0.156l0.672-3.906-2.844-2.766q-0.195-0.211-0.195-0.375 0-0.289 0.438-0.359l3.922-0.57 1.758-3.555q0.148-0.32 0.383-0.32t0.383 0.32l1.758 3.555 3.922 0.57q0.438 0.070 0.438 0.359z"/> </symbol><symbol viewBox="0 0 8 14" id="icon-tint"><title>tint</title> <path d="M4 9q0-0.281-0.156-0.539-0.008-0.008-0.121-0.176t-0.199-0.297-0.195-0.344-0.164-0.395q-0.031-0.125-0.164-0.125t-0.164 0.125q-0.055 0.18-0.164 0.395t-0.195 0.344-0.199 0.297-0.121 0.176q-0.156 0.258-0.156 0.539 0 0.414 0.293 0.707t0.707 0.293 0.707-0.293 0.293-0.707zM8 8q0 1.656-1.172 2.828t-2.828 1.172-2.828-1.172-1.172-2.828q0-1.133 0.633-2.148 0.047-0.070 0.488-0.707t0.789-1.18 0.777-1.391 0.648-1.574q0.070-0.234 0.266-0.367t0.398-0.133 0.402 0.133 0.262 0.367q0.219 0.727 0.648 1.574t0.777 1.391 0.789 1.18 0.488 0.707q0.633 0.992 0.633 2.148z"/> </symbol><symbol viewBox="0 0 13 14" id="icon-twitter"><title>twitter</title> <path d="M12.656 3.188q-0.523 0.766-1.266 1.305 0.008 0.109 0.008 0.328 0 1.016-0.297 2.027t-0.902 1.941-1.441 1.645-2.016 1.141-2.523 0.426q-2.117 0-3.875-1.133 0.273 0.031 0.609 0.031 1.758 0 3.133-1.078-0.82-0.016-1.469-0.504t-0.891-1.246q0.258 0.039 0.477 0.039 0.336 0 0.664-0.086-0.875-0.18-1.449-0.871t-0.574-1.605v-0.031q0.531 0.297 1.141 0.32-0.516-0.344-0.82-0.898t-0.305-1.203q0-0.688 0.344-1.273 0.945 1.164 2.301 1.863t2.902 0.777q-0.062-0.297-0.062-0.578 0-1.047 0.738-1.785t1.785-0.738q1.094 0 1.844 0.797 0.852-0.164 1.602-0.609-0.289 0.898-1.109 1.391 0.727-0.078 1.453-0.391z"/> </symbol><symbol viewBox="0 0 11 14" id="icon-user"><title>user</title> <path d="M11 10.977q0 0.937-0.57 1.48t-1.516 0.543h-6.828q-0.945 0-1.516-0.543t-0.57-1.48q0-0.414 0.027-0.809t0.109-0.852 0.207-0.848 0.336-0.762 0.484-0.633 0.668-0.418 0.871-0.156q0.070 0 0.328 0.168t0.582 0.375 0.844 0.375 1.043 0.168 1.043-0.168 0.844-0.375 0.582-0.375 0.328-0.168q0.477 0 0.871 0.156t0.668 0.418 0.484 0.633 0.336 0.762 0.207 0.848 0.109 0.852 0.027 0.809zM8.5 4q0 1.242-0.879 2.121t-2.121 0.879-2.121-0.879-0.879-2.121 0.879-2.121 2.121-0.879 2.121 0.879 0.879 2.121z"/> </symbol><symbol viewBox="0 0 12 14" id="icon-youtube"><title>youtube</title> <path d="M7.586 9.719v1.648q0 0.523-0.305 0.523-0.18 0-0.352-0.172v-2.352q0.172-0.172 0.352-0.172 0.305 0 0.305 0.523zM10.227 9.727v0.359h-0.703v-0.359q0-0.531 0.352-0.531t0.352 0.531zM2.68 8.023h0.836v-0.734h-2.438v0.734h0.82v4.445h0.781v-4.445zM4.93 12.469h0.695v-3.859h-0.695v2.953q-0.234 0.328-0.445 0.328-0.141 0-0.164-0.164-0.008-0.023-0.008-0.273v-2.844h-0.695v3.055q0 0.383 0.062 0.57 0.094 0.289 0.453 0.289 0.375 0 0.797-0.477v0.422zM8.281 11.313v-1.539q0-0.57-0.070-0.773-0.133-0.438-0.555-0.438-0.391 0-0.727 0.422v-1.695h-0.695v5.18h0.695v-0.375q0.352 0.43 0.727 0.43 0.422 0 0.555-0.43 0.070-0.211 0.070-0.781zM10.922 11.234v-0.102h-0.711q0 0.398-0.016 0.477-0.055 0.281-0.312 0.281-0.359 0-0.359-0.539v-0.68h1.398v-0.805q0-0.617-0.211-0.906-0.305-0.398-0.828-0.398-0.531 0-0.836 0.398-0.219 0.289-0.219 0.906v1.352q0 0.617 0.227 0.906 0.305 0.398 0.844 0.398 0.563 0 0.844-0.414 0.141-0.211 0.164-0.422 0.016-0.070 0.016-0.453zM6.172 4.102v-1.641q0-0.539-0.336-0.539t-0.336 0.539v1.641q0 0.547 0.336 0.547t0.336-0.547zM11.789 9.969q0 1.828-0.203 2.734-0.109 0.461-0.453 0.773t-0.797 0.359q-1.438 0.164-4.336 0.164t-4.336-0.164q-0.453-0.047-0.801-0.359t-0.449-0.773q-0.203-0.875-0.203-2.734 0-1.828 0.203-2.734 0.109-0.461 0.453-0.773t0.805-0.367q1.43-0.156 4.328-0.156t4.336 0.156q0.453 0.055 0.801 0.367t0.449 0.773q0.203 0.875 0.203 2.734zM3.992 0h0.797l-0.945 3.117v2.117h-0.781v-2.117q-0.109-0.578-0.477-1.656-0.289-0.805-0.508-1.461h0.828l0.555 2.055zM6.883 2.602v1.367q0 0.633-0.219 0.922-0.289 0.398-0.828 0.398-0.523 0-0.82-0.398-0.219-0.297-0.219-0.922v-1.367q0-0.625 0.219-0.914 0.297-0.398 0.82-0.398 0.539 0 0.828 0.398 0.219 0.289 0.219 0.914zM9.5 1.336v3.898h-0.711v-0.43q-0.414 0.484-0.805 0.484-0.359 0-0.461-0.289-0.062-0.187-0.062-0.586v-3.078h0.711v2.867q0 0.258 0.008 0.273 0.023 0.172 0.164 0.172 0.211 0 0.445-0.336v-2.977h0.711z"/> </symbol></svg>